<?xml version="1.0" encoding="UTF-8"?>
<svg id="Layer_1" xmlns="http://www.w3.org/2000/svg" viewBox="0 0 1080 1080">
  <defs>
    <style>
      .cls-1 {
        fill: #012c64;
      }

      .cls-2 {
        fill: #909195;
      }

      .cls-3 {
        fill: #919296;
      }

      .cls-4 {
        fill: #022c65;
      }

      .cls-5 {
        fill: #032d66;
      }

      .cls-6 {
        fill: #012c65;
      }
    </style>
  </defs>
  <path class="cls-1" d="M682.52,226.07c.65.22,1.29.48,1.95.66,7.03,1.9,11.7,6.96,12.42,14.19.61,6.11.85,12.27.99,18.42.3,13.82.54,27.65.6,41.47.15,36.29.2,72.57.26,108.86,0,3.83-.19,7.65-.29,11.56-11.08,4.4-22.03,8.75-33.17,13.18-.05-.89-.11-1.5-.11-2.12-.03-5.91-.05-11.83-.07-17.74-.11-39.88-.22-79.77-.34-119.65-.02-7.91-.01-15.83-.1-23.74-.04-3.89-1.52-7.31-3.92-10.33-1.41-1.77-3.3-2.74-5.6-2.82-.48-.02-.96-.02-1.44-.02-12.08-.04-24.15-.08-36.23-.1-33.91-.05-67.82-.1-101.73-.14-18.71-.03-37.43-.05-56.14-.09-18.79-.04-37.59-.09-56.38-.15-13.35-.04-26.72.18-40.06-.29-5.99-.21-12.6,5.79-13.25,11.03-.15,1.19-.34,2.38-.34,3.57-.05,12.55-.08,25.1-.09,37.65-.03,24.78-.04,49.56-.09,74.34-.03,17.02-.1,34.05-.15,51.07-.09,33.41-.17,66.82-.25,100.23-.01,4.8-.05,9.59-.03,14.39.02,6.78,3.87,11.62,10.62,12.75,3.84.64,7.79.82,11.7.9,12.87.26,25.74.5,38.61.54,29.35.09,58.7.06,88.05.06,8.8,0,17.59-.05,26.39-.08.8,0,1.59,0,2.67,0,4.5,10.22,9.01,20.48,13.68,31.08-.92,0-1.52,0-2.12,0-.64,0-1.28-.04-1.92-.04-22.55-.04-45.1-.08-67.66-.11-34.63-.04-69.26-.07-103.89-.11-9.92-.01-19.83-.02-29.75-.03-3.85,0-7.43-1.06-10.71-3.02-5.01-2.98-7.48-7.53-7.74-13.27-.16-3.43-.11-6.87-.12-10.31-.06-17.02-.14-34.05-.17-51.07-.08-42.04-.15-84.09-.19-126.13-.05-48.12-.05-96.24-.1-144.36,0-4.3,1.26-8.19,3.59-11.73,3.23-4.92,7.97-7.24,13.76-7.47,3.51-.14,7.04-.06,10.56-.07,21.11-.04,42.23-.05,63.34-.11,30.31-.08,60.61-.2,90.92-.3.56,0,1.11-.06,1.67-.08,3.9.03,7.79.09,11.69.09,10.98-.02,21.96-.06,32.93-.09,15.03,0,30.06-.01,45.09-.02,7.52,0,15.04,0,22.55.01,7.52,0,15.03.01,22.55.02,6.94.01,13.89.04,20.83.02.59,0,1.17-.3,1.76-.46,8.32,0,16.64,0,24.95,0Z"/>
  <path class="cls-4" d="M114.84,715.29h28.57c8.96,26.47,17.85,52.76,26.95,79.63,2.47-6.95,4.35-13.56,6.43-20.09,2.1-6.61,4.16-13.24,6.24-19.87,2.06-6.55,4.12-13.09,6.18-19.63,2.08-6.62,4.16-13.24,6.27-19.91h28.3c8.26,25.25,16.53,50.55,24.8,75.84.16,0,.31,0,.47.01,7.37-25.26,14.74-50.52,22.17-75.98,9.91.16,19.71.32,29.79.48-11.1,35.99-22.14,71.8-33.21,107.67h-36.38c-7.36-22.17-14.76-44.48-22.36-67.39-7.44,22.8-14.7,45.07-21.98,67.39h-35.94c-.55-1.59-1.12-3.15-1.64-4.73-11.07-33.32-22.13-66.64-33.23-99.94-.29-.88-.06-2.18-1.41-2.52v-.96Z"/>
  <path class="cls-4" d="M965.16,824.17c-3.02-.15-6.05-.35-9.07-.43-6.15-.17-12.3-.29-18.5-.43-12.09-17.75-24.13-35.42-36.33-53.32-.6.64-1.07,1.12-1.52,1.63-6.36,7.07-12.69,14.17-19.09,21.21-1.03,1.13-1.52,2.25-1.51,3.81.08,7.99.04,15.98.04,23.97,0,.79,0,1.57,0,2.52h-27.55v-107.79c9.06-.09,18.19.06,27.46.25v44.69c.91-.92,1.51-1.48,2.06-2.1,12.31-13.65,24.63-27.3,36.88-41,1.22-1.36,2.42-1.96,4.27-1.94,8.87.1,17.75.04,26.59.04.07.13.12.19.14.26.02.07.05.16.02.21-.07.14-.16.28-.27.4-10.4,11.82-20.79,23.64-31.19,35.46-.05.06-.06.15-.14.39.31.5.66,1.11,1.04,1.69,15.41,23.13,30.83,46.26,46.26,69.38.06.09.26.09.4.13v.96Z"/>
  <path class="cls-2" d="M586.5,643.01c-38.77-86.51-77.45-172.84-116.27-259.45,14.45-6.84,28.77-13.61,43.32-20.5,14.69,32.59,29.29,64.96,44.03,97.65,18.25-7.19,36.41-14.34,54.83-21.6,4.88,10.63,9.73,21.2,14.69,32.02,19.67-8.61,39.25-17.17,59.07-25.85,4.51,9.63,8.96,19.14,13.54,28.92,16.99-7.58,33.87-15.11,50.97-22.74,14.94,33.99,29.81,67.81,44.82,101.95-69.65,29.92-139.21,59.67-209,89.6Z"/>
  <path class="cls-6" d="M583.61,796.62v-81.18h28.66c.25,35.98.5,71.89.75,107.91-2.64,0-5.02.01-7.4,0-7.75-.05-15.51-.18-23.26-.14-2.09,0-3.43-.62-4.72-2.37-18.67-25.54-37.43-51.02-56.17-76.51-.5-.67-1-1.34-1.5-2.01-.16.06-.32.12-.48.18v80.93h-28.8v-107.98h32.82c19.83,27.06,39.73,54.21,59.62,81.36.16-.06.32-.12.48-.17Z"/>
  <path class="cls-1" d="M742.34,823.11v-107.66h89.3v19.73h-63.04v22.25h59.01v18.53h-58.99v25.23h64.67v21.92h-90.95Z"/>
  <path class="cls-5" d="M338.84,764.33c19.93.15,39.57.29,59.44.44.12,1.88.24,3.67.39,5.81-19.8.27-39.49.54-59.14.8v44.3c22.74.14,45.25.27,67.89.41v7.32c-.74.04-1.44.12-2.14.12-27.51,0-55.02-.03-82.53.04-3.91,0-7.07-1.34-9.41-4.34-1.7-2.19-3.14-4.61-4.54-7.02-.45-.77-.55-1.83-.56-2.76-.22-20.38-.4-40.75-.59-61.13-.05-5.83-.05-11.67-.19-17.5-.08-3.16.99-5.77,3.1-8.03,3-3.22,6.69-5.42,10.65-7.19.55-.25,1.24-.28,1.86-.28,27.75-.01,55.5-.01,83.25,0,.31,0,.62.05,1.08.09v8.09c-22.54-.13-45.04-.26-67.8-.39-.26,13.73-.51,27.28-.77,41.21Z"/>
  <path class="cls-6" d="M727.14,715.44v19.28c-11.93.23-23.81.46-36,.69-.15,29.37-.3,58.63-.45,87.97h-28.77c-.1-14.91.07-29.66.05-44.4-.02-14.68,0-29.35,0-44.23-11.93.21-23.82.42-35.69.63-.52-1.71-.7-15.36-.26-19.94h101.12Z"/>
  <path class="cls-2" d="M430.26,715.82h27.38c.54,1.73.73,69.04.21,72.7h-27.44c-.49-1.64-.67-69.02-.16-72.7Z"/>
  <path class="cls-3" d="M425.25,801.03c2.14-.81,4.06-1.53,6.22-2.34,1.69,4.58,3.34,9.04,5.09,13.78,2.63-.87,5.09-1.68,7.65-2.52.56,1.49,1.08,2.89,1.66,4.47,2.78-.97,5.46-1.91,8.37-2.93.55,1.38,1.05,2.61,1.64,4.1,2.33-.83,4.62-1.64,7.18-2.56,2.11,4.58,3.56,9.36,5.58,14.26-9.94,3.63-19.72,7.2-29.83,10.89-4.5-12.34-8.98-24.59-13.56-37.14Z"/>
</svg>