<?xml version="1.0" encoding="UTF-8"?>
<svg id="Layer_1" xmlns="http://www.w3.org/2000/svg" viewBox="0 0 1080 434.52">
  <defs>
    <style>
      .cls-1 {
        fill: #002b64;
      }

      .cls-2 {
        fill: #8f9094;
      }
    </style>
  </defs>
  <path class="cls-1" d="M70.22,262.48c-8.87-27.31-17.73-54.61-26.64-82.05h21.24c6.55,19.74,13.12,39.55,19.88,59.91,6.24-20.26,12.33-40.02,18.46-59.88h21.27c6.08,18.96,12.17,37.94,18.44,57.5,5.59-19.54,11.03-38.52,16.48-57.54h22.37c-8.22,27.41-16.41,54.7-24.61,82.05h-27.29c-5.42-16.77-10.84-33.57-16.43-50.86-5.49,17.24-10.83,34.04-16.19,50.87h-26.98Z"/>
  <path class="cls-1" d="M322.29,262.45v-81.99h24.58c14.66,20.39,29.38,40.87,44.38,61.73v-61.72h21.91v81.99h-25.23c-14.53-20.36-29.12-40.79-43.94-61.56v61.55h-21.7Z"/>
  <path class="cls-1" d="M576.75,180.47v15.05h-48.03v16.54h43.78v14.2h-43.78v18.89h47.97v17.3h-67.67v-81.97h67.73Z"/>
  <path class="cls-1" d="M610.6,180.47v33.94c10.19-11.56,20.09-22.79,29.96-33.97h22.42c-8.09,9.34-15.97,18.45-23.92,27.63,11.86,18.09,23.68,36.12,35.64,54.35h-20.96c-8.82-13.34-17.74-26.84-26.77-40.5-2.97,3.35-5.81,6.55-8.64,9.76-2.29,2.59-4.6,5.15-6.82,7.8-.49.58-.85,1.46-.85,2.21-.07,6.35-.04,12.7-.04,19.06,0,.55,0,1.09,0,1.72h-20.46v-82.01h20.44Z"/>
  <path class="cls-2" d="M913.48,179.86c-1.85.11-1.69-1.45-2.44-2.83,3.01-1.28,5.83-2.55,8.7-3.7,5.49-2.2,11.36-2.49,17.14-2.83,3.52-.21,7.11.43,10.66.77,3.1.29,6.2.62,9.28,1.05,4.22.59,8.43,1.34,12.65,1.95,2.13.31,4.28.58,6.44.68,3.75.17,7.51.15,11.26.28,4.39.16,8.59-.82,12.78-1.95,4.53-1.22,8.76-3.12,12.61-5.77,2.77-1.91,5.35-4.08,8.2-6.28.2,1.67.39,3.34.59,5.06-3.72,3.96-7.85,7.31-12.6,9.92-6.1,3.35-12.69,5.09-19.56,5.41-4.58.21-9.19-.32-13.78-.58-2.03-.11-4.06-.37-6.39-.59.12,1.83.24,3.6.38,5.68,2.69.32,5.27.76,7.87.9,3.79.19,7.61.44,11.38.15,4.24-.32,8.55-.83,12.62-1.97,4-1.13,7.88-2.91,11.57-4.86,2.91-1.55,5.44-3.8,8.15-5.73.29-.21.58-.41,1.06-.76.2,1.76.43,3.32.51,4.88.02.44-.29,1-.62,1.34-4.4,4.56-9.44,8.29-15.25,10.83-4.97,2.17-10.26,3.16-15.68,3.56-6.26.46-12.46-.04-18.65-.85-.59-.08-1.2-.01-2.06-.01.19,1.85.37,3.62.56,5.54,2.23.23,4.31.5,6.39.65,2.86.21,5.74.64,8.58.45,5.13-.34,10.32-.71,15.34-1.74,3.79-.78,7.52-2.32,10.98-4.09,3.41-1.75,6.45-4.23,9.65-6.4.45-.31.85-.69,1.55-1.27.23,2.08.42,3.85.6,5.55-4.83,5.16-10.3,9.29-16.75,11.92-5.37,2.19-11.04,3.46-16.86,3.45-4.76-.01-9.52-.4-14.28-.69-1.36-.08-2.7-.42-4.35-.68.16,1.88.32,3.69.49,5.7,19.05,3.03,37.03,1.81,52.43-12.38.14,1.27.24,2.11.33,2.95.09.83.19,1.66.3,2.6-3.75,4.2-8.14,7.57-13.08,10.3-7.09,3.91-14.87,4.85-22.74,5.21-3.11.14-6.26-.41-9.39-.66-3.06-.24-6.12-.41-9.17-.78-2.7-.33-5.36-.92-8.05-1.34-2.47-.39-4.95-.76-7.44-1.03-3.23-.34-6.48-.78-9.72-.79-4.03,0-8.08.27-12.09.66-2.61.25-5.18.93-7.94,1.45-.29-1.18-.53-2.15-.82-3.28h1.67c.12-.69.23-1.31.34-1.95-.45-.23-.97-.49-1.56-.78-.3.36-.64.78-1.22,1.48-1.17-4.63-3.85-8.56-3.71-13.44-1.21-.49-3.59-5.72-3.11-8.08.15.38.29.75.44,1.13-.03.07-.05.14-.05.12,0,.01.01-.07.03-.14.69-.15,1.38-.29,2.06-.44.05-.78.1-1.56.16-2.46-.4-.06-.97-.15-1.29-.19-.7.64-1.28,1.17-2.27,2.08-1.16-3.94-2.17-7.3-3.1-10.69-.14-.51.16-1.13.25-1.7.08-.08.15-.16.06-.07.06-.11,0-.02-.04.08ZM965.15,185.97s-.01.01-.02.02c.04-.51.07-1.02.12-1.62-.37-.32-.91-.77-1.39-1.19-.33.34-.66.69-.93.98.17.48.32.9.45,1.26.64.2,1.21.38,1.78.56ZM965.97,195.25c.08.12.15.24.03.04.22.09.09.04-.05-.02.08-.61.16-1.22.24-1.87-.46-.37-.97-.78-1.47-1.18-.36.26-.73.52-1.08.77.29.61.54,1.15.77,1.63.55.22,1.05.42,1.56.62ZM967.12,205.04c.03.07.06.14.05.12.01.02-.03-.04-.07-.11l.18-1.58c-.14.22-.29.45-.43.67-.41-.67-.81-1.34-1.22-2.01.24.11.49.22.73.33-.5.22-1,.45-1.47.66.14.51.3,1.11.44,1.62.63.1,1.21.2,1.79.3ZM967.91,214.89c.06.02.13.04.14.04-.02,0-.09-.01-.16-.02.13-.53.26-1.06.4-1.61-.45-.47-.95-1-1.35-1.42-.5.31-.94.57-1.31.8.29.62.59,1.26.84,1.78.51.15.97.29,1.44.43ZM949.72,179.52c.02.06.04.13.04.13,0,0-.03-.05-.05-.11.05-.53.1-1.05.15-1.57-.43-.28-.98-.65-1.51-1.01-.44.24-.92.51-1.38.76.19.59.38,1.17.58,1.79.71,0,1.45,0,2.19,0ZM958.1,213.47c.08.09.16.18.04.04.17.07.06.02-.06-.02.08-.7.15-1.39.24-2.14-.42-.36-.99-.85-1.47-1.26-.49.37-.99.75-1.49,1.13.36.54.72,1.1,1.05,1.61.59.22,1.14.43,1.7.64ZM954.46,201.15c-.06-.12-.12-.24-.02-.04-.19-.11-.08-.04.04.02.14.68.28,1.35.4,1.92h2.01c.07-.62.14-1.2.19-1.63-.52-.57-.94-1.02-1.45-1.57-.4.44-.78.88-1.17,1.31ZM947.73,212.9c.06.08.12.16.04.05.12.07.03.02-.05-.03v-1.29c.22-.26.47-.56.64-.77-.71-.49-1.35-.93-2.02-1.39-.46.33-1,.72-1.49,1.07.26.72.53,1.43.73,1.97.78.14,1.47.26,2.17.39ZM938.13,195.59c.28.79.54,1.52.76,2.14.66-.04,1.33-.09,1.98-.13.21-.74.45-1.55.65-2.25-.63-.41-1.19-.78-1.84-1.2-.41.38-.97.9-1.55,1.43ZM930.73,199.06c.11-.69.25-1.52.37-2.27-.53-.35-1.09-.72-1.65-1.08-.53.63-1.07,1.26-1.48,1.75.27.84.48,1.51.67,2.08.66-.15,1.35-.31,2.09-.49ZM936.28,203.13c.11-.71.22-1.51.34-2.32-.56-.31-1.18-.65-1.64-.91-.65.53-1.18.97-1.76,1.44.26.31.52.63.84,1.01v1.13c.77-.13,1.45-.24,2.22-.36ZM945.67,191.96c.22-.52.39-.93.5-1.2-.68-.44-1.26-.81-1.83-1.17-.55.28-1.13.58-1.67.86.34.82.65,1.56.95,2.27.77.12,1.54.23,2.37.36-.11-.38-.21-.73-.32-1.11ZM928.05,177.17c.08.16.17.32.25.47-.55.48-1.1.96-1.65,1.43.12.3.35.89.59,1.51.68-.21,1.42-.45,2.14-.67.15-.7.3-1.35.45-2.04-.63-.25-1.21-.47-1.79-.7ZM933.33,193.43c.66-.11,1.33-.23,1.94-.33.24-.85.48-1.71.67-2.37-.66-.45-1.24-.85-1.74-1.2-.45.57-.95,1.21-1.43,1.82.18.64.36,1.3.57,2.08ZM938.95,184.31c-.63.51-1.23,1-1.68,1.35.33.8.63,1.55.88,2.16.69-.04,1.37-.08,1.92-.11.19-.66.38-1.3.58-1.98-.52-.43-1.1-.92-1.7-1.42ZM927.14,187.77c.3.66.58,1.27.85,1.85.67-.22,1.35-.45,1.89-.62.23-.77.44-1.45.6-2.02-.59-.38-1.18-.75-1.76-1.12-.51.62-1.07,1.28-1.58,1.9ZM932.68,183.9c.72-.11,1.49-.22,2.2-.32.12-.71.25-1.46.37-2.17-.63-.33-1.23-.64-1.82-.95.14.14.27.29.41.43-.58.35-1.16.69-1.76,1.04.17.58.36,1.21.59,1.97ZM946.61,202.84c.08-.66.17-1.41.26-2.16-.53-.47-1.07-.93-1.63-1.43-.37.62-.71,1.21-1.05,1.79-.12-.14-.24-.27-.36-.41.25.71.51,1.42.74,2.08.69.04,1.37.08,2.04.12ZM937.59,210.7c-.66-.35-1.34-.72-2.07-1.1-.09.23-.22.56-.34.86-.43.22-.83.41-1.11.55.35.77.65,1.44.94,2.08.68-.09,1.44-.18,2.08-.27.18-.78.36-1.51.5-2.12ZM930.22,205.53c-.59.77-1.11,1.45-1.6,2.1.24.53.52,1.13.76,1.67.64-.14,1.28-.27,1.75-.37.31-.86.6-1.64.9-2.47h-1.14c-.24-.34-.46-.63-.67-.92ZM949.34,198.01c.58-.03,1.21-.07,1.83-.11.15-.72.29-1.39.41-1.99-.55-.39-1.07-.77-1.59-1.14-.55.3-1.09.59-1.58.87.31.79.59,1.49.94,2.38ZM942.35,205.62c-.69-.53-1.34-1.03-1.98-1.53-.46.54-.91,1.08-1.28,1.53.31.79.58,1.48.81,2.06.71-.07,1.38-.14,1.94-.19.18-.67.36-1.3.51-1.86ZM923.21,182.82c-.43.62-.94,1.37-1.41,2.05.25.58.49,1.14.66,1.55.71-.25,1.38-.48,1.94-.67.2-.78.4-1.58.56-2.2-.62-.26-1.19-.49-1.76-.73ZM950.29,207.94h1.86c.2-.79.36-1.46.52-2.11-.63-.39-1.21-.76-1.73-1.08-.5.41-.97.8-1.38,1.13.24.69.49,1.39.72,2.07ZM924.08,192.39c-.57.67-1.13,1.32-1.66,1.93.3.47.64.99.96,1.49.58-.14,1.21-.28,1.77-.41.13-.76.25-1.46.37-2.19-.41-.23-.88-.5-1.44-.83ZM925.56,205.15c.28-.69.56-1.39.79-1.98-.58-.34-1.19-.69-1.72-1-.42.65-.88,1.37-1.35,2.08.18.55.35,1.09.5,1.56.65-.24,1.23-.46,1.77-.66ZM938.25,176.1c-.57.38-1.08.71-1.57,1.03.34.66.62,1.22.91,1.78h2c.14-.59.27-1.14.39-1.66-.54-.36-1.1-.73-1.73-1.15ZM949.14,185.17c-.47.37-.96.76-1.41,1.11.17.68.34,1.32.5,1.96h1.93c.16-.65.32-1.28.46-1.83-.53-.44-1-.84-1.48-1.25ZM934.1,175.24c.19-.61.34-1.11.48-1.58-.66-.38-1.23-.71-1.77-1.02-.55.43-1.03.82-1.54,1.21.26.53.52,1.05.79,1.6.69-.07,1.32-.14,2.03-.21ZM942.21,181.43c.24.63.5,1.3.75,1.94.67.05,1.4.11,1.97.16.06-.62.12-1.24.19-1.89-.48-.44-1-.93-1.48-1.37-.5.4-.99.81-1.43,1.16ZM961.51,199.28c.09-.57.19-1.28.29-1.91-.6-.54-1.19-1.07-1.78-1.6.23.23.46.46.69.69-.48.28-.96.57-1.53.91.07.2.29.85.48,1.42.6.16,1.18.32,1.85.5ZM917.59,181.08c-.49.66-.88,1.18-1.27,1.71.24.45.52.97.77,1.44.62-.27,1.22-.53,1.76-.77.12-.7.23-1.4.35-2.09-.55-.1-1.11-.2-1.6-.29ZM922.37,174.77c-.39.43-.96,1.06-1.4,1.55.26.53.52,1.04.79,1.57.34-.28.68-.56,1.04-.85.4.07.79.13,1.15.19.1-.7.18-1.31.25-1.81-.6-.21-1.16-.41-1.83-.65ZM953.1,191c.31.78.6,1.49.86,2.13h1.77c.15-.57.31-1.22.45-1.75-.59-.4-1.14-.77-1.7-1.15-.44.24-.91.51-1.38.78ZM959.96,206.66c.25.72.48,1.4.71,2.05.62.09,1.22.17,1.82.26.09-.58.17-1.15.26-1.69-.53-.49-1.03-.96-1.48-1.38-.47.28-.89.52-1.3.76ZM960.25,189.48c.2-.6.37-1.13.53-1.59-.51-.45-1.08-.97-1.53-1.37-.6.24-1.14.45-1.62.64.37.69.74,1.39,1.14,2.12.47.06,1.04.14,1.49.21ZM944.23,175.25c.17-.48.31-.9.46-1.33-.59-.31-1.18-.62-1.77-.93-.48.22-.92.41-1.29.58.27.71.5,1.32.72,1.9.64-.08,1.22-.15,1.88-.23ZM952.49,182.32c.17.62.33,1.22.47,1.72.66-.04,1.27-.08,1.91-.12.16-.41.34-.89.47-1.21-.57-.46-1.07-.86-1.57-1.25-.44.3-.88.6-1.28.87ZM957.26,178.9c.2.71.36,1.31.5,1.8h1.99v-1.4c-.45-.29-.87-.56-1.26-.81-.46.15-.85.28-1.23.41ZM961.97,176.09c.25.43.46.82.69,1.22.57.08,1.15.16,1.73.24.15-.4.27-.74.39-1.07-.44-.26-.87-.51-1.33-.79-.46.12-.94.25-1.48.4ZM953.55,176.16c.52-.46.87-.77,1.19-1.06-.46-.31-.99-.67-1.48-1.01-.45.26-.84.49-1.21.7.13.49.24.93.35,1.36h1.14Z"/>
  <path class="cls-1" d="M714.39,180.56h18.06c0,.72,0,1.31,0,1.91,0,14.9-.14,29.8.09,44.7.06,3.94.75,8.04,2.01,11.77,3.52,10.37,15.45,10.31,20.81,5.63,3.13-2.73,4.41-6.43,5.04-10.36.35-2.2.56-4.45.57-6.68.05-14.99.03-29.99.03-44.98,0-.6,0-1.2,0-1.95h17.97c.03.56.08,1.1.09,1.64,0,15.23.08,30.46-.03,45.68-.05,6.87-1.31,13.54-4.61,19.69-3.98,7.43-10.25,11.85-18.38,13.66-7.57,1.69-15.17,1.69-22.56-.8-9.65-3.25-15.1-10.46-17.25-20.06-1.12-5.01-1.67-10.23-1.75-15.37-.23-14.29-.08-28.59-.08-42.88,0-.5,0-1,0-1.59Z"/>
  <path class="cls-1" d="M924.08,260.98h-19.49c-2.03-6.84-4.05-13.66-6.08-20.5h-22.47c-1.82,6.78-3.65,13.6-5.5,20.49h-18.82c8.09-26.94,16.13-53.69,24.17-80.46h23.56c8.19,26.75,16.37,53.48,24.63,80.47ZM879.5,225.79c2.67-1.87,5.33-3.74,8.1-5.68,2.62,1.92,5.27,3.86,8.21,6.02-1.1-3.58-2.08-6.75-3.05-9.92,2.71-2.02,5.26-3.92,8.25-6.14h-10.27c-1.05-3.22-2.07-6.34-3.2-9.82-1.14,3.53-2.15,6.66-3.2,9.9h-10.15c2.99,2.23,5.62,4.19,8.19,6.11-.99,3.33-1.92,6.45-2.86,9.57-.02.03-.04.06-.06.08.01-.04.02-.07.04-.11Z"/>
  <path class="cls-1" d="M254.19,217.31v5.59h-44.33v33.17h50.87v6.5h-1.72c-21.05,0-42.1,0-63.15,0-5.4,0-9.49-3.91-9.5-9.33-.05-20.97-.05-41.94,0-62.9.01-5.32,4.71-9.96,10.03-9.97,21.05-.04,42.1-.02,63.15-.01.36,0,.73.05,1.19.09v6.34h-50.88v30.53h44.35Z"/>
  <path class="cls-1" d="M471.11,262.49h-21.88v-67.23h-26.59v-14.81h75.26v14.73h-26.8v67.31Z"/>
  <path class="cls-1" d="M791.2,257.29c1.23-5.05,2.43-9.97,3.68-15.1.57.24,1.03.4,1.46.61,6.59,3.05,13.47,4.83,20.77,4.19,2.12-.19,4.37-.82,6.22-1.85,4.85-2.71,5.41-9.34.86-12.51-3.24-2.26-7.02-3.83-10.7-5.34-6.11-2.5-11.98-5.29-16.37-10.42-7.3-8.52-6.35-22.17,1.94-29.79,5.23-4.8,11.5-7.06,18.39-7.72,7.95-.76,15.75.01,23.23,3.06.55.23,1.08.53,1.78.87-1.33,4.87-2.65,9.7-3.93,14.4-3.31-.99-6.38-2.11-9.54-2.8-4.17-.9-8.42-1.26-12.6.11-3.92,1.28-6.06,3.88-5.57,7.47.22,1.63,1.18,3.76,2.48,4.55,3.88,2.35,8.03,4.31,12.21,6.11,5.48,2.36,10.88,4.81,14.86,9.44,9.45,10.99,5.85,28.77-7.08,35.49-7.76,4.04-16.05,4.69-24.55,4.01-5.43-.44-10.69-1.69-15.7-3.89-.55-.24-1.08-.53-1.83-.9Z"/>
  <path class="cls-2" d="M277.43,180.52h20.58v55.22h-20.58v-55.22Z"/>
  <path class="cls-2" d="M1025.98,212.8c.2,1.76.42,3.23.5,4.72.02.49-.2,1.14-.55,1.48-4.45,4.28-9.18,8.12-14.96,10.61-5.49,2.37-11.18,3.85-17.11,3.97-4.68.09-9.37-.33-14.04-.7-3.69-.29-7.37-.79-11.04-1.29-4.44-.61-8.84-1.49-13.29-1.93-4.13-.41-8.3-.59-12.45-.52-4.3.07-8.59.57-13.12.9-.65-1.83-1.41-3.96-2.33-6.56,2.73-.45,5.25-1.04,7.8-1.25,3.66-.31,7.35-.54,11.02-.43,3.37.1,6.73.68,10.08,1.08,3.39.4,6.78.84,10.17,1.27,3.66.47,7.32,1.01,10.99,1.39,3.09.32,6.21.71,9.29.6,5.25-.19,10.56-.29,15.7-1.25,7.98-1.49,15.07-5.18,21.25-10.53.59-.51,1.24-.94,2.09-1.57Z"/>
  <path class="cls-2" d="M1027.31,225.92c.2,1.93.37,3.63.54,5.3-4.16,4.52-8.88,8.09-14.25,10.83-4.83,2.47-10.05,3.77-15.34,4.23-5.14.45-10.37.02-15.55-.21-2.96-.13-5.91-.6-8.85-1.01-4.43-.62-8.83-1.42-13.26-1.98-3.24-.41-6.51-.66-9.78-.82-3.28-.16-6.57-.22-9.86-.14-2.13.05-4.26.4-6.55.64-.79-2.24-1.56-4.41-2.51-7.11,3.06-.27,5.8-.59,8.55-.73,2.3-.12,4.63-.17,6.93.01,4.61.36,9.21.87,13.81,1.39,3.34.38,6.67.88,10.01,1.3,2.9.37,5.81.72,8.72,1.03,2.61.28,5.24.73,7.85.69,4.37-.06,8.78-.12,13.09-.77,4.97-.75,9.92-2,14.28-4.64,3.86-2.34,7.49-5.04,11.22-7.58.18-.12.4-.18.93-.41Z"/>
  <path class="cls-2" d="M1028.67,238.66c.16,2.03.52,3.89.34,5.69-.08.81-1.19,1.58-1.94,2.24-5.09,4.42-10.71,7.84-17.21,9.91-5.95,1.89-11.97,2.75-18.15,2.42-5.56-.3-11.13-.7-16.66-1.32-5.13-.58-10.21-1.64-15.33-2.24-6.42-.75-12.88-1.36-19.36-.58-.5.06-1,0-1.65,0-.75-2.1-1.49-4.15-2.35-6.54,2.74-.21,5.26-.57,7.78-.56,3.34.01,6.7.19,10.03.52,3.96.4,7.89,1.05,11.84,1.56,3.49.45,6.98.86,10.46,1.3,2.4.31,4.78.84,7.18.93,4.08.17,8.2.36,12.25,0,4.57-.4,9.2-1,13.61-2.22,5.13-1.42,9.87-3.94,14.16-7.18,1.58-1.2,3.11-2.45,5-3.95Z"/>
  <path class="cls-2" d="M283.85,273.29c-3.4-9.47-6.71-18.71-10.06-28.08,1.59-.61,3.01-1.16,4.64-1.79,1.26,3.49,2.49,6.88,3.78,10.46,1.88-.66,3.67-1.29,5.61-1.97.43,1.11.84,2.17,1.31,3.39,2.07-.74,4.07-1.45,6.16-2.19.44,1.05.83,1.98,1.28,3.04,1.78-.62,3.47-1.22,5.38-1.89,1.36,3.64,2.67,7.15,4.03,10.81-7.41,2.75-14.66,5.43-22.14,8.21Z"/>
</svg>